<svg width="25" height="25" viewBox="0 0 25 25" fill="none" xmlns="http://www.w3.org/2000/svg">
<path fill-rule="evenodd" clip-rule="evenodd" d="M16.7975 12.5C16.7975 12.0686 16.4477 11.7188 16.0163 11.7188H4.58653L6.62887 9.96818C6.95647 9.68739 6.99441 9.19418 6.71361 8.86659C6.43282 8.53898 5.93961 8.50105 5.61202 8.78185L1.96618 11.9069C1.79302 12.0552 1.69336 12.272 1.69336 12.5C1.69336 12.728 1.79302 12.9448 1.96618 13.0931L5.61202 16.2181C5.93961 16.499 6.43282 16.4611 6.71361 16.1335C6.99441 15.8058 6.95647 15.3126 6.62887 15.0319L4.58653 13.2813H16.0163C16.4477 13.2813 16.7975 12.9315 16.7975 12.5Z" fill="#8A8A8A"/>
<path d="M9.76562 8.33301C9.76562 9.06446 9.76563 9.43018 9.94116 9.6929C10.0172 9.80666 10.1148 9.90434 10.2286 9.98035C10.4914 10.1559 10.8571 10.1559 11.5885 10.1559H16.0156C17.31 10.1559 18.3594 11.2052 18.3594 12.4997C18.3594 13.794 17.31 14.8434 16.0156 14.8434H11.5885C10.8571 14.8434 10.4912 14.8434 10.2285 15.0189C10.1148 15.095 10.0172 15.1926 9.9412 15.3063C9.76562 15.569 9.76562 15.9348 9.76562 16.6663C9.76562 19.6126 9.76563 21.0857 10.6809 22.001C11.5963 22.9163 13.0692 22.9163 16.0154 22.9163H17.0571C20.0033 22.9163 21.4765 22.9163 22.3918 22.001C23.3071 21.0857 23.3071 19.6126 23.3071 16.6663V8.33301C23.3071 5.38674 23.3071 3.91359 22.3918 2.9983C21.4765 2.08301 20.0033 2.08301 17.0571 2.08301H16.0154C13.0692 2.08301 11.5963 2.08301 10.6809 2.9983C9.76563 3.91359 9.76562 5.38673 9.76562 8.33301Z" fill="#8A8A8A"/>
</svg>
